<svg xmlns="http://www.w3.org/2000/svg" width="449.98" height="55.394" viewBox="0 0 449.98 55.394"><path d="M0 54.636L16.12 39.25H.977v-2.556h21.338L6.195 52.08h15.278v2.556H0zM4.892 18.13c-1.304 1.467-2.012 3.478-2.012 5.408 0 4.594 3.833 8.1 8.373 8.1 4.485 0 8.318-3.478 8.318-8.045 0-2.012-.76-3.94-2.12-5.464h3.02c.93 1.57 1.44 3.58 1.44 5.38 0 5.84-4.64 10.68-10.57 10.68-6.06 0-10.79-4.87-10.79-10.9 0-1.8.44-3.62 1.39-5.17H4.9zM9.24 2.987H.98V.433h20.495v2.555h-9.84v9.758h9.84V15.3H.978v-2.554H9.24v-9.76z"/><g fill="#6B1C32"><path d="M99.24 40.05c0 5.116-2.44 8.908-7.314 11.377-3.76 1.94-8.49 2.91-14.187 2.91H36.23c-2.29 0-3.436-1.16-3.436-3.484V4.07c0-2.292 1.145-3.44 3.436-3.44h40.32c4.553 0 8.003.266 10.354.794 3.583.794 6.58 2.41 8.987 4.85 2.24 2.265 3.35 4.895 3.35 7.893 0 3.528-.12 5.734-.35 6.615-.32 1.205-1.35 3.072-3.08 5.6-.59.853-.59 1.602 0 2.25 1.68 1.82 2.7 3.57 3.09 5.248.24.937.36 2.995.36 6.17zm-9.825-3.234c-.06-3.387-4.098-5.082-12.116-5.082H42.58v14.54h34.06c7.87 0 12.1-1.693 12.687-5.083.116-.58.147-2.04.088-4.37zm.264-18.123l-.27-4.493c-.21-3.73-4.44-5.6-12.69-5.6H42.8v15.07h34.32c8.49 0 12.674-1.656 12.557-4.977zm75.6 31.06c0 3.057-1.15 4.583-3.44 4.583h-34.98c-5.41 0-10.09-.91-14.06-2.733-5.23-2.38-7.85-5.938-7.85-10.67V14.298c0-2.618.86-4.938 2.6-6.968 3.76-4.466 10.47-6.7 20.13-6.7h9.56c2.26 0 3.39 1.144 3.39 3.436v1.057c0 2.32-1.14 3.412-3.4 3.412-.18 0-1.02.03-2.52-.014-1.5-.04-2.84-.02-4.01-.02-10.73 0-16.07 1.92-16.07 5.8v9.39h47.23c2.4 0 3.61 1.27 3.61 3.79 0 1.15-.31 2.12-.93 2.91-.71.91-1.62 1.37-2.74 1.37h-47.18v8.84c0 3.8 4.19 5.7 12.58 5.7h34.6c2.29 0 3.44 1.17 3.44 3.48zm78.02-.44c.11.44.17.88.17 1.32 0 1.383-.47 2.52-1.41 3.418-.94.9-2.06 1.35-3.35 1.35-1.86 0-3.38-.88-4.59-2.64l-8.69-12.6h-41.22l-8.68 12.6c-.94 1.38-1.95 2.07-3.04 2.07-.62 0-1.32-.17-2.11-.52-1.79-.79-2.69-1.86-2.69-3.21 0-.29.09-.58.26-.88l30.93-47.28c1.18-1.79 3.18-2.76 6-2.91 2.32-.11 4.02.53 5.11 1.94.11.24.29.56.52.97l32.78 46.4zm-23.59-17.27L204.89 10.14l-14.94 21.903h29.767zm87.42-26.92c0 2.32-1.15 3.48-3.44 3.48h-34.85c-8.46 0-12.69 1.693-12.69 5.075v26.598c0 4 4.68 5.998 14.05 5.998h33.26c2.37 0 3.56 1.34 3.56 4.01 0 2.703-1.19 4.053-3.57 4.053H270.2c-4.494 0-7.726-.176-9.693-.528-2.116-.36-4.36-1.16-6.74-2.43-2.615-1.35-4.48-2.82-5.597-4.41-1.205-1.68-1.806-3.85-1.806-6.53V13.72c0-3.352 1.557-6.233 4.67-8.643 2.644-2 5.77-3.32 9.385-3.968 1.91-.32 4.66-.48 8.24-.48h35.04c1.43 0 2.4.42 2.9 1.27.35.59.53 1.66.53 3.21zm70.67 34.794c0 9.614-8.3 14.42-24.9 14.42h-15.24c-6.44 0-11.74-.853-15.91-2.558-5.938-2.42-8.9-6.35-8.9-11.82V15.18c0-9.7 8.27-14.55 24.8-14.55h15.25c7.52 0 13.03.676 16.52 2.03 5.58 2.172 8.37 6.35 8.37 12.52v24.736zm-9.83-.215V15.398c0-4.53-4.95-6.793-14.85-6.793h-15.5c-9.99 0-14.98 2.264-14.98 6.793v24.304c0 4.382 4.99 6.57 14.98 6.57h15.55c9.87 0 14.8-2.188 14.8-6.57zm81.99 8.818c0 4.083-1.8 6.124-5.39 6.124-.35 0-.72-.028-1.1-.087-1.18-.115-2.68-.947-4.5-2.49L393.32 13.24v37.613c0 1.766-.676 2.853-2.025 3.263-.47.147-1.91.22-4.318.22-2.29 0-3.437-1.16-3.437-3.482v-44.8c0-1.558.103-2.572.31-3.042.292-.733 1.027-1.454 2.203-2.16.732-.413 1.57-.618 2.51-.618 2.145 0 4.317.94 6.52 2.82l45.072 38.373V4.067c0-1.763.69-2.848 2.07-3.26.47-.117 1.896-.177 4.274-.177 2.31 0 3.48 1.145 3.48 3.436V48.52z"/><path d="M164.078 4.582c0 2.18-1.765 3.946-3.947 3.946l-27.82-.02c-2.18 0-3.96-1.747-3.96-3.926 0-2.18 1.77-3.946 3.95-3.946h27.84c2.19 0 3.95 1.766 3.95 3.946z"/></g><path fill="none" d="M89.773 18.693l-.265-4.494c-.206-3.73-4.435-5.6-12.69-5.6H60.862l11.236 15.07h5.12c8.487 0 12.674-1.66 12.556-4.98zm167.677-7.636l11.683-2.452h-.178c-5.88 0-9.71.82-11.504 2.452zM89.42 41.19c.118-.588.147-2.046.09-4.374-.06-3.28-3.863-4.97-11.394-5.072l9.262 12.418c1.138-.776 1.833-1.76 2.043-2.97zm106.068-17.122l16.574-3.48-7.073-10.448m-90.24 30.434c0 .15.01.295.03.44l44.19-9.28h-44.22v8.84z"/><path fill="#87243E" d="M76.82 8.604c8.254 0 12.483 1.867 12.69 5.595l.264 4.49c.117 3.32-4.07 4.98-12.557 4.98h-5.12l6.02 8.07c7.53.1 11.333 1.79 11.392 5.07.05 2.33.02 3.78-.09 4.37-.21 1.21-.91 2.19-2.05 2.97l1.68 2.25 9.55-2c.47-1.33.73-2.78.73-4.36 0-3.18-.12-5.24-.36-6.17-.38-1.68-1.41-3.43-3.08-5.25-.59-.65-.59-1.4 0-2.25 1.73-2.53 2.76-4.4 3.08-5.6.23-.88.35-3.09.35-6.62 0-3-1.12-5.63-3.35-7.89-2.41-2.44-5.4-4.06-8.99-4.85C84.65.89 81.2.63 76.64.63H54.91l5.95 7.975h15.96zm37.934 31.97v-8.84h44.223l5.49-1.152c.065-.073.14-.133.202-.214.61-.793.92-1.76.92-2.907 0-2.52-1.21-3.79-3.62-3.79h-47.23v-9.38c0-3.87 5.36-5.81 16.08-5.81.34 0 .73.01 1.1.01-1.97-.23-3.5-1.87-3.5-3.9 0-2.18 1.76-3.94 3.94-3.94h5.05-9.65c-9.66 0-16.37 2.23-20.13 6.7-1.74 2.03-2.6 4.35-2.6 6.97v26.63c0 .73.08 1.41.2 2.08l9.52-2c-.014-.14-.03-.29-.03-.44z"/><path fill="#BCBEC0" d="M161.934 31.734c1.018 0 1.856-.396 2.533-1.152l-5.49 1.152h2.957z"/><path fill="#87243E" d="M204.99 10.14l7.072 10.448 9.616-2.02L210.623 2.92c-.235-.41-.412-.732-.528-.97-1.087-1.41-2.792-2.054-5.11-1.937-2.82.148-4.818 1.117-5.992 2.907L183.51 26.583l11.978-2.515 9.5-13.928zm63.965-1.536h.178L305.6.947c-.48-.21-1.08-.317-1.796-.317H268.78c-3.585 0-6.33.162-8.24.486-3.612.647-6.74 1.97-9.383 3.968-2.997 2.32-4.537 5.08-4.648 8.27l10.94-2.297c1.79-1.633 5.62-2.453 11.5-2.453zm34.85 0c2.29 0 3.436-1.16 3.436-3.48 0-1.557-.17-2.628-.52-3.217-.25-.43-.62-.748-1.11-.96l-36.47 7.657h34.67zM140.747 4.066v1.057c0 1.992-.84 3.123-2.504 3.404h21.98c2.183 0 3.948-1.767 3.948-3.946 0-2.18-1.76-3.94-3.94-3.94h-22.79c2.2.03 3.31 1.17 3.31 3.43z"/><path fill="#87243E" d="M138.244 8.528c1.665-.282 2.504-1.413 2.504-3.404V4.066c0-2.26-1.105-3.4-3.305-3.43h-5.053c-2.183 0-3.947 1.766-3.947 3.946 0 2.023 1.528 3.672 3.493 3.9.75.007 1.55.022 2.413.045"/></svg>
